<svg width="293" height="80" viewBox="0 0 293 80" fill="none" xmlns="http://www.w3.org/2000/svg">
<path d="M38.4764 19.4504C40.5672 19.4473 42.5302 20.5486 43.9569 22.1906C45.3858 23.8355 46.3152 26.0633 46.3153 28.3977C46.3153 29.9861 45.9896 31.3034 45.0331 32.8C44.0948 34.268 42.5524 35.9041 40.1532 38.1565C38.7258 39.4966 37.6519 40.5171 36.8661 41.3371C36.0749 42.1628 35.6076 42.7523 35.3622 43.2278C35.1309 43.6759 35.1055 44.0051 35.1932 44.3469C35.2917 44.7304 35.5394 45.1616 35.9549 45.7951V45.7961C37.7479 48.5307 40.786 52.0444 43.5282 54.7873C44.8985 56.158 46.1824 57.3237 47.1883 58.0969C47.6937 58.4853 48.112 58.7609 48.4247 58.9162C48.5735 58.9902 48.6794 59.025 48.746 59.0393C48.7674 59.0164 48.7956 58.9859 48.826 58.9436C48.8947 58.848 48.9724 58.7142 49.0575 58.5403C49.2278 58.192 49.408 57.719 49.5838 57.1486C49.9348 56.01 50.2567 54.5297 50.4608 52.9895C50.9511 49.2927 52.5614 45.2792 54.6522 41.9397C56.7336 38.6155 59.3471 35.8708 61.8963 34.8147L62.4686 34.5832C63.7569 34.0772 64.7343 33.8103 65.6825 33.8762C66.7761 33.9524 67.7564 34.4655 69.0702 35.3264C69.8658 35.8474 70.76 36.2568 71.5497 36.4934C71.9443 36.6116 72.3036 36.6832 72.6034 36.7082C72.911 36.7338 73.118 36.7061 73.2352 36.6613C74.1735 36.3012 75.0358 36.2122 75.7186 36.5598C76.424 36.9192 76.7693 37.654 76.8739 38.5373C76.9786 39.4223 76.858 40.5529 76.5419 41.885C76.2241 43.224 75.7011 44.7981 74.9745 46.5822C74.195 48.496 73.4863 50.5238 72.9725 52.2453C72.7156 53.1061 72.5083 53.8864 72.3661 54.5344C72.2218 55.1915 72.1511 55.6824 72.1503 55.9797C72.1461 57.8305 71.6151 59.2506 70.4462 59.7317C69.2907 60.207 67.8697 59.6109 66.4696 58.344C65.5217 57.4861 64.9366 57.1223 64.451 57.0422C64.0081 56.9694 63.539 57.1199 62.7645 57.6682C60.8274 59.0395 58.1259 60.5836 55.7235 61.7766C54.5213 62.3735 53.3848 62.8866 52.4491 63.2483C51.9818 63.4289 51.5577 63.575 51.1962 63.674C50.8467 63.7697 50.5123 63.8344 50.244 63.8235C49.9605 63.8117 49.5455 63.7041 49.0838 63.5569C48.604 63.4038 48.0181 63.1893 47.368 62.9299C46.0667 62.4105 44.4858 61.7045 42.9383 60.9367C39.7982 59.3786 34.9591 55.5742 32.1444 52.466C30.7308 50.9043 29.3482 49.6193 28.2401 48.7863C27.6836 48.368 27.2139 48.0773 26.8563 47.9192C26.6771 47.84 26.546 47.8032 26.4598 47.7922C26.4301 47.7884 26.4108 47.7887 26.4003 47.7893C26.3074 47.8544 26.1517 48.0119 25.9471 48.299C25.7373 48.5936 25.5053 48.9822 25.2665 49.4397C24.7892 50.3539 24.301 51.5146 23.9217 52.6955C23.1067 55.2348 21.9674 57.4743 20.8221 58.9738C20.2526 59.7195 19.6581 60.3126 19.0751 60.6574C18.493 61.0017 17.8188 61.1499 17.2176 60.7785C17.0246 60.6591 16.8896 60.4759 16.7928 60.301C16.6927 60.1199 16.6095 59.9043 16.5389 59.6701C16.3976 59.2012 16.2879 58.598 16.2059 57.9074C16.0415 56.5222 15.9779 54.7155 16.0067 52.7736C16.0642 48.8974 16.4927 44.3989 17.2743 41.5344L17.4061 41.0754C18.8311 36.3147 22.3427 31.0268 26.2899 26.8899C28.3312 24.7505 30.5047 22.9012 32.5917 21.5832C34.6665 20.2729 36.7099 19.4534 38.4764 19.4504ZM136.811 16.7893C137.475 16.1276 138.225 15.8467 139.048 16.0822C139.803 16.2986 140.52 16.9277 141.236 17.7903C141.764 18.4259 142.075 19.116 142.129 19.8694C142.182 20.6179 141.98 21.3807 141.569 22.1594H141.568C141.436 22.41 141.215 22.9914 140.924 23.8684C140.637 24.7317 140.294 25.847 139.917 27.1369C139.163 29.7167 138.275 32.986 137.437 36.3195C135.878 42.5265 135.183 46.611 135.331 49.1291C135.405 50.3851 135.685 51.17 136.094 51.6379C136.485 52.0858 137.063 52.3195 137.93 52.3195C138.441 52.3195 139.223 52.0193 140.164 51.4367C141.083 50.868 142.081 50.0769 143.004 49.2033C143.927 48.3297 144.762 47.3854 145.361 46.5178C145.661 46.0842 145.896 45.6778 146.055 45.3156C146.215 44.9487 146.284 44.6551 146.284 44.4387C146.284 42.2296 147.185 39.8416 148.501 37.9201C149.809 36.0095 151.597 34.4609 153.45 34.0588C155.183 33.6828 157.699 32.8469 159.014 32.2141C159.752 31.8587 160.738 31.596 161.725 31.4485C162.714 31.3008 163.747 31.2625 164.584 31.3811C165.766 31.5482 166.658 31.879 167.257 32.7199C167.822 33.5143 168.063 34.6871 168.22 36.3352V36.3361C168.634 40.7038 167.356 45.5262 165.008 49.7531C162.659 53.9809 159.213 57.6628 155.233 59.7209C153.87 60.4261 152.885 60.8418 151.933 60.8205C150.962 60.7987 150.115 60.3263 149.02 59.5598C148.282 59.0426 147.613 58.3802 147.124 57.7229C146.653 57.0894 146.284 56.3726 146.284 55.757C146.284 55.1418 146.164 54.7151 145.981 54.4328C145.807 54.1643 145.551 53.9867 145.178 53.9074C144.377 53.7379 143.069 54.0291 141.236 54.9768C139.124 56.0687 136.643 56.6761 134.447 56.7746C133.348 56.8239 132.305 56.7473 131.405 56.5305C130.511 56.315 129.72 55.9519 129.17 55.4016C129.004 55.2361 128.824 55.1421 128.602 55.1067C128.37 55.0696 128.063 55.0927 127.647 55.219C126.805 55.4752 125.646 56.1126 124.013 57.2229C121.591 58.868 119.659 59.865 118.05 60.177C117.235 60.3348 116.489 60.3204 115.801 60.1164C115.111 59.9121 114.509 59.5263 113.971 58.9875C113.654 58.6713 113.253 58.5098 112.666 58.5354C112.054 58.5622 111.251 58.7933 110.187 59.2776C108.955 59.8387 107.929 60.1452 106.884 60.1506C105.837 60.1559 104.824 59.8597 103.617 59.3098C102.201 58.6646 101.254 58.128 100.827 56.8342C100.626 56.2249 100.549 55.475 100.54 54.5197C100.531 53.5605 100.591 52.3522 100.683 50.8117C100.82 48.5546 100.802 46.901 100.637 45.7834C100.554 45.2238 100.437 44.8291 100.305 44.5686C100.184 44.3318 100.07 44.2445 99.9881 44.2102C99.9687 44.2123 99.9211 44.2193 99.8378 44.2453C99.6901 44.2915 99.4889 44.379 99.2352 44.5149C98.7292 44.7858 98.0704 45.2173 97.3016 45.7824C95.7668 46.9108 93.8366 48.5404 91.8885 50.3986V50.3996C89.0391 53.1174 87.1649 54.7719 85.8827 55.5656C85.248 55.9585 84.6769 56.1939 84.1581 56.174C83.5805 56.1518 83.1835 55.8234 82.9081 55.3879C82.5528 54.8261 82.2566 54.3434 82.0692 53.8479C81.8746 53.3331 81.801 52.8174 81.8524 52.1838C81.9026 51.5657 82.0724 50.8352 82.3534 49.8869C82.6354 48.9353 83.0392 47.7344 83.5702 46.1701C84.57 43.2243 85.4943 39.1559 85.6278 37.1574L85.7069 36.1662C85.7975 35.2179 85.9219 34.3982 86.0868 33.7063C86.3049 32.7912 86.6044 32.0555 87.0282 31.5383C87.4701 30.9994 88.0383 30.7115 88.7157 30.6985C89.3621 30.6862 90.0648 30.9244 90.8124 31.3244C91.7732 31.8385 92.4494 32.4159 92.7577 33.2883C93.0551 34.1301 92.9722 35.1519 92.6854 36.4592V36.4602C92.4512 37.527 92.4057 38.3447 92.5008 38.927C92.595 39.5028 92.8134 39.7871 93.0624 39.9192C93.3289 40.0604 93.7641 40.1001 94.4344 39.8938C95.0978 39.6895 95.9238 39.2636 96.9032 38.5852C99.2904 36.931 101.078 35.9311 102.585 35.5803C103.351 35.4022 104.054 35.3888 104.73 35.5451C105.404 35.701 106.024 36.0192 106.633 36.4641C107.083 36.7937 107.463 37.1444 107.753 37.5754C108.045 38.0102 108.231 38.5031 108.33 39.0949C108.522 40.2483 108.386 41.8286 108.041 44.1965C107.288 49.359 106.948 52.1789 107.059 53.7678C107.115 54.5536 107.277 54.9427 107.472 55.1633C107.663 55.38 107.956 55.5165 108.488 55.6233C109.574 55.8407 110.813 55.4698 111.796 54.7404C112.782 54.0078 113.411 52.9889 113.411 52.0129C113.411 51.7112 113.497 51.2717 113.623 50.7756C113.753 50.2642 113.939 49.6444 114.167 48.9602C114.623 47.5902 115.251 45.9398 115.94 44.3371L116.195 43.7678C117.511 40.9443 119.43 38.4662 121.522 36.6994C123.739 34.8273 126.225 33.6953 128.437 33.9133C128.749 33.944 129.011 33.884 129.277 33.6955C129.563 33.4932 129.881 33.1233 130.245 32.4807C130.976 31.1895 131.798 28.9749 132.944 25.3713L133.475 23.7483C133.994 22.2085 134.48 20.9154 134.947 19.8586C135.565 18.4599 136.171 17.4283 136.811 16.7893ZM187.181 29.675C187.834 29.7062 188.439 29.9423 188.88 30.4143C189.321 30.8865 189.551 31.5442 189.551 32.3303C189.551 32.9216 189.68 33.3454 189.873 33.632C190.06 33.9106 190.331 34.0941 190.69 34.177C191.443 34.3501 192.621 34.0805 194.07 33.1311C195.639 32.1029 197.62 31.4487 199.221 31.257C200.016 31.1619 200.765 31.1745 201.34 31.3459C201.629 31.4322 201.907 31.5693 202.118 31.7844C202.34 32.0106 202.466 32.3027 202.466 32.6369C202.466 32.6792 202.485 32.7979 202.559 33.0061C202.63 33.2025 202.735 33.4423 202.87 33.7092C203.14 34.243 203.516 34.8603 203.93 35.426C204.307 35.9421 204.563 36.2555 204.805 36.4338C205.006 36.5823 205.195 36.636 205.491 36.5832C205.83 36.5226 206.299 36.3223 207.014 35.9104C207.72 35.5034 208.619 34.9188 209.809 34.1311C211.74 32.8534 213.156 32.0572 214.301 31.7151C214.882 31.5413 215.412 31.4792 215.916 31.5383C216.423 31.5978 216.875 31.7771 217.304 32.0471C218.046 32.5148 218.649 33.0613 219.088 33.8137C219.524 34.5617 219.777 35.4766 219.883 36.6477C220.092 38.9674 219.732 42.4304 218.919 47.9035C218.545 50.4162 218.183 52.4276 217.816 53.9485C217.455 55.4466 217.075 56.5399 216.636 57.1574C216.415 57.4671 216.119 57.7437 215.724 57.8039C215.312 57.8666 214.961 57.6706 214.693 57.4162C214.426 57.1621 214.179 56.7934 213.942 56.3488C213.703 55.8983 213.459 55.3401 213.209 54.6828C212.551 52.9515 212.032 49.4833 212.032 46.9426C212.032 45.7282 211.883 44.5364 211.646 43.6028C211.528 43.1356 211.391 42.7461 211.248 42.4553C211.097 42.1493 210.97 42.0148 210.904 41.9738V41.9729C210.857 41.9436 210.757 41.9112 210.554 41.9533C210.347 41.9962 210.078 42.1087 209.749 42.3078C209.092 42.7057 208.288 43.394 207.411 44.3176C205.663 46.1599 203.696 48.8596 202.116 51.7854C201.427 53.0604 200.701 54.036 199.941 54.6604C199.174 55.2909 198.334 55.5902 197.468 55.4143C196.998 55.3189 196.565 55.1579 196.212 54.8469C195.855 54.5323 195.628 54.1062 195.486 53.5695C195.214 52.5344 195.225 50.9287 195.375 48.4641C195.474 46.8329 195.429 45.2766 195.279 44.0871C195.204 43.491 195.103 43.002 194.989 42.6477C194.932 42.4704 194.875 42.3392 194.824 42.2502C194.769 42.1553 194.74 42.142 194.756 42.1516C194.409 41.9372 193.948 41.8704 193.346 42.01C192.738 42.1509 192.019 42.4965 191.215 43.0569C189.608 44.1769 187.751 46.094 185.887 48.6682C183.631 51.7811 181.574 54.0396 179.896 55.2688C179.064 55.8788 178.271 56.2756 177.559 56.3518C177.195 56.3907 176.839 56.3468 176.515 56.1926C176.191 56.0379 175.931 55.7879 175.734 55.469C175.444 54.9988 175.325 54.3327 175.3 53.5979C175.273 52.8463 175.343 51.9488 175.486 50.9602C175.774 48.9808 176.366 46.5797 177.14 44.136C177.914 41.6906 178.874 39.1875 179.902 37.0031C180.926 34.828 182.033 32.9328 183.112 31.7307C184.364 30.3361 185.891 29.6136 187.181 29.675ZM161.806 39.7561C161.592 39.6241 161.207 39.5989 160.627 39.8166C160.068 40.0267 159.433 40.4271 158.83 40.9455C158.229 41.4621 157.681 42.0779 157.288 42.6994C156.889 43.3293 156.677 43.9204 156.677 44.3967C156.677 45.001 156.423 45.7662 156.067 46.4924C155.704 47.233 155.203 47.9995 154.644 48.6164C153.789 49.5615 153.45 50.846 153.564 51.8752C153.621 52.3879 153.786 52.8028 154.016 53.0783C154.235 53.34 154.523 53.4914 154.899 53.4934C154.905 53.4919 154.935 53.4858 154.992 53.4602C155.07 53.425 155.174 53.3662 155.302 53.2795C155.557 53.106 155.873 52.8446 156.229 52.509C156.941 51.8391 157.778 50.9057 158.562 49.8752C160.295 47.599 161.505 45.2306 162.055 43.3137C162.33 42.3527 162.431 41.5342 162.368 40.9113C162.313 40.3662 162.142 40.0258 161.909 39.8313L161.806 39.7561ZM64.9647 43.1272C64.3779 42.9022 63.5264 43.0877 62.5018 43.7326C61.5028 44.3615 60.4565 45.357 59.5546 46.4973C58.6528 47.6373 57.9185 48.8941 57.5233 50.0295C57.1187 51.1919 57.1113 52.0992 57.4549 52.6555C57.697 53.0471 57.9601 53.262 58.2352 53.3615C58.5121 53.4616 58.8681 53.4682 59.3387 53.3205C60.3067 53.0165 61.6065 52.1083 63.3085 50.4778C65.0813 48.779 66.0736 47.0923 66.3163 45.76C66.4364 45.1006 66.3693 44.5536 66.1551 44.1281C65.9439 43.709 65.565 43.3577 64.9647 43.1272ZM126.783 41.5793C126.709 41.5794 126.57 41.6146 126.361 41.7463C126.159 41.8741 125.928 42.0695 125.681 42.3254C125.187 42.8372 124.669 43.5474 124.222 44.3108C123.774 45.0744 123.41 45.868 123.21 46.5393C123.11 46.8752 123.056 47.1647 123.047 47.3947C123.037 47.6322 123.077 47.7565 123.109 47.8088C123.387 48.2588 123.654 48.5119 123.891 48.633C124.11 48.7446 124.341 48.7634 124.62 48.6672C124.917 48.5645 125.277 48.3268 125.698 47.9016C126.116 47.4794 126.573 46.8953 127.068 46.1399C127.948 44.7968 128.259 43.5844 128.151 42.7639C128.098 42.3623 127.949 42.0763 127.744 41.8908C127.541 41.7074 127.234 41.5793 126.783 41.5793ZM37.5262 26.674C37.093 26.7378 36.5408 27.0817 35.5917 27.9406C34.3213 29.0907 33.3654 30.5057 32.8563 31.8215C32.3365 33.1654 32.3266 34.28 32.7313 34.9348C32.9911 35.3553 33.2488 35.5925 33.4979 35.7082C33.7363 35.8187 34.024 35.8452 34.4071 35.7356C35.2205 35.5026 36.3326 34.6967 37.8827 33.1467C38.7154 32.314 39.3349 31.635 39.7635 31.0549C40.1945 30.4717 40.4047 30.0252 40.4667 29.6574C40.5781 28.9955 40.2351 28.3681 39.0155 27.3557C38.3052 26.7662 37.9034 26.6187 37.5262 26.674Z" fill="#242424"/>
<path d="M276.885 60.9998H270.285V19.4474H276.885V60.9998Z" fill="#242424"/>
<path d="M246.045 60.9998C234.924 60.9998 228.63 54.8281 228.63 44.3789V19.4474H235.168V44.3789C235.168 51.7728 237.979 54.6448 246.045 54.6448C254.05 54.6448 256.861 51.7728 256.861 44.3789V19.4474H263.46V44.3789C263.46 54.8281 257.105 60.9998 246.045 60.9998Z" fill="#242424"/>
</svg>
