<svg width="293" height="80" viewBox="0 0 293 80" fill="none" xmlns="http://www.w3.org/2000/svg">
<path d="M38.4766 19.4502C40.5673 19.4471 42.5304 20.5485 43.957 22.1904C45.3859 23.8352 46.3153 26.0632 46.3154 28.3975C46.3154 29.9858 45.9896 31.3032 45.0332 32.7998C44.095 34.2678 42.5525 35.9039 40.1533 38.1562C38.7259 39.4964 37.652 40.5169 36.8662 41.3369C36.075 42.1626 35.6078 42.7521 35.3623 43.2275C35.131 43.6757 35.1057 44.0049 35.1934 44.3467C35.2918 44.7301 35.5396 45.1614 35.9551 45.7949V45.7959C37.7481 48.5305 40.7861 52.0442 43.5283 54.7871C44.8986 56.1578 46.1825 57.3234 47.1885 58.0967C47.6939 58.4851 48.1122 58.7606 48.4248 58.916C48.5737 58.99 48.6795 59.0248 48.7461 59.0391C48.7676 59.0162 48.7957 58.9857 48.8262 58.9434C48.8948 58.8478 48.9726 58.714 49.0576 58.54C49.2279 58.1918 49.4082 57.7187 49.584 57.1484C49.9349 56.0098 50.2569 54.5294 50.4609 52.9893C50.9513 49.2925 52.5615 45.2789 54.6523 41.9395C56.7337 38.6152 59.3472 35.8705 61.8965 34.8145L62.4688 34.583C63.7571 34.077 64.7344 33.81 65.6826 33.876C66.7762 33.9522 67.7566 34.4653 69.0703 35.3262C69.8659 35.8473 70.7601 36.2566 71.5498 36.4932C71.9444 36.6114 72.3037 36.683 72.6035 36.708C72.9113 36.7336 73.1182 36.706 73.2354 36.6611C74.1737 36.301 75.0359 36.212 75.7188 36.5596C76.4241 36.9189 76.7694 37.6538 76.874 38.5371C76.9787 39.4221 76.8581 40.5528 76.542 41.8848C76.2242 43.2237 75.7012 44.798 74.9746 46.582C74.1951 48.4957 73.4864 50.5237 72.9727 52.2451C72.7158 53.1058 72.5085 53.8862 72.3662 54.5342C72.222 55.1911 72.1512 55.6822 72.1504 55.9795C72.1462 57.8303 71.6152 59.2503 70.4463 59.7314C69.2908 60.2069 67.87 59.6107 66.4697 58.3438C65.5218 57.4859 64.9368 57.1221 64.4512 57.042C64.0082 56.9691 63.5392 57.1197 62.7646 57.668C60.8276 59.0393 58.1261 60.5834 55.7236 61.7764C54.5214 62.3733 53.385 62.8863 52.4492 63.248C51.9819 63.4287 51.5578 63.5748 51.1963 63.6738C50.8468 63.7695 50.5124 63.8342 50.2441 63.8232C49.9606 63.8116 49.5457 63.7039 49.084 63.5566C48.6041 63.4036 48.0182 63.1891 47.3682 62.9297C46.0668 62.4103 44.4859 61.7043 42.9385 60.9365C39.7984 59.3784 34.9593 55.574 32.1445 52.4658C30.7309 50.9041 29.3483 49.6191 28.2402 48.7861C27.6837 48.3678 27.214 48.077 26.8564 47.9189C26.6773 47.8397 26.5462 47.803 26.46 47.792C26.4302 47.7882 26.411 47.7885 26.4004 47.7891C26.3076 47.8541 26.1519 48.0115 25.9473 48.2988C25.7375 48.5934 25.5054 48.9821 25.2666 49.4395C24.7893 50.3536 24.3011 51.5145 23.9219 52.6953C23.1069 55.2345 21.9675 57.4741 20.8223 58.9736C20.2527 59.7194 19.6582 60.3123 19.0752 60.6572C18.4931 61.0015 17.819 61.1497 17.2178 60.7783C17.0247 60.6589 16.8898 60.4757 16.793 60.3008C16.6928 60.1197 16.6097 59.9041 16.5391 59.6699C16.3978 59.2011 16.288 58.5977 16.2061 57.9072C16.0416 56.522 15.978 54.7152 16.0068 52.7734C16.0644 48.8972 16.4929 44.3987 17.2744 41.5342L17.4062 41.0752C18.8313 36.3145 22.3428 31.0265 26.29 26.8896C28.3314 24.7502 30.5048 22.901 32.5918 21.583C34.6667 20.2727 36.71 19.4531 38.4766 19.4502ZM136.812 16.7891C137.475 16.1274 138.225 15.8465 139.048 16.082C139.803 16.2984 140.52 16.9275 141.236 17.79C141.764 18.4257 142.075 19.1158 142.129 19.8691C142.183 20.6178 141.98 21.3804 141.569 22.1592H141.568C141.436 22.4097 141.215 22.9909 140.924 23.8682C140.637 24.7315 140.294 25.8467 139.917 27.1367C139.163 29.7165 138.275 32.9857 137.438 36.3193C135.878 42.5264 135.183 46.6108 135.331 49.1289C135.405 50.385 135.685 51.1697 136.094 51.6377C136.485 52.0856 137.063 52.3193 137.93 52.3193C138.441 52.3193 139.223 52.0191 140.164 51.4365C141.083 50.8677 142.081 50.0767 143.004 49.2031C143.927 48.3294 144.762 47.3853 145.361 46.5176C145.661 46.0839 145.896 45.6776 146.055 45.3154C146.215 44.9484 146.284 44.6549 146.284 44.4385C146.284 42.2293 147.185 39.8414 148.501 37.9199C149.809 36.0093 151.597 34.4606 153.45 34.0586C155.184 33.6826 157.699 32.8467 159.014 32.2139C159.752 31.8585 160.738 31.5958 161.726 31.4482C162.714 31.3006 163.747 31.2623 164.584 31.3809C165.766 31.548 166.658 31.8789 167.257 32.7197C167.822 33.5141 168.063 34.6868 168.22 36.335V36.3359C168.635 40.7036 167.356 45.5259 165.008 49.7529C162.659 53.9808 159.213 57.6626 155.233 59.7207C153.87 60.4259 152.885 60.8416 151.934 60.8203C150.962 60.7985 150.115 60.3262 149.021 59.5596C148.282 59.0424 147.613 58.38 147.124 57.7227C146.653 57.0892 146.284 56.3725 146.284 55.7568C146.284 55.1415 146.164 54.7149 145.981 54.4326C145.807 54.1641 145.551 53.9864 145.178 53.9072C144.377 53.7376 143.069 54.0288 141.236 54.9766C139.124 56.0686 136.644 56.6759 134.447 56.7744C133.348 56.8237 132.305 56.7471 131.405 56.5303C130.511 56.3148 129.72 55.9517 129.17 55.4014C129.004 55.236 128.824 55.1419 128.603 55.1064C128.37 55.0694 128.063 55.0925 127.647 55.2188C126.805 55.4749 125.647 56.1123 124.013 57.2227C121.591 58.8678 119.659 59.8647 118.05 60.1768C117.235 60.3346 116.489 60.3202 115.801 60.1162C115.111 59.9119 114.51 59.5261 113.971 58.9873C113.654 58.6711 113.253 58.5096 112.666 58.5352C112.054 58.5619 111.251 58.7931 110.188 59.2773C108.955 59.8386 107.929 60.145 106.884 60.1504C105.837 60.1557 104.824 59.8595 103.617 59.3096C102.201 58.6643 101.254 58.1279 100.827 56.834C100.626 56.2246 100.549 55.4749 100.54 54.5195C100.531 53.5602 100.591 52.3521 100.684 50.8115C100.82 48.5542 100.802 46.9008 100.637 45.7832C100.554 45.2235 100.437 44.8289 100.305 44.5684C100.184 44.3316 100.07 44.2443 99.9883 44.21C99.9689 44.212 99.9214 44.219 99.8379 44.2451C99.6902 44.2913 99.4892 44.3788 99.2354 44.5146C98.7293 44.7856 98.0707 45.217 97.3018 45.7822C95.7669 46.9106 93.8368 48.5401 91.8887 50.3984V50.3994C89.0391 53.1173 87.165 54.7717 85.8828 55.5654C85.2481 55.9583 84.6771 56.1937 84.1582 56.1738C83.5805 56.1516 83.1836 55.8233 82.9082 55.3877C82.5529 54.8259 82.2567 54.3432 82.0693 53.8477C81.8747 53.3328 81.8011 52.8173 81.8525 52.1836C81.9027 51.5654 82.0724 50.8351 82.3535 49.8867C82.6355 48.9351 83.0393 47.7343 83.5703 46.1699C84.5701 43.224 85.4945 39.1557 85.6279 37.1572L85.707 36.166C85.7977 35.2176 85.922 34.398 86.0869 33.7061C86.305 32.7909 86.6044 32.0553 87.0283 31.5381C87.4703 30.9992 88.0384 30.7112 88.7158 30.6982C89.3623 30.6859 90.0649 30.9242 90.8125 31.3242C91.7733 31.8382 92.4495 32.4157 92.7578 33.2881C93.0553 34.1299 92.9724 35.1516 92.6855 36.459V36.46C92.4513 37.5269 92.4058 38.3444 92.501 38.9268C92.5951 39.5028 92.8135 39.7868 93.0625 39.9189C93.329 40.0602 93.7641 40.0999 94.4346 39.8936C95.098 39.6893 95.9238 39.2634 96.9033 38.585C99.2906 36.9308 101.078 35.9308 102.585 35.5801C103.351 35.4019 104.054 35.3886 104.73 35.5449C105.404 35.7008 106.024 36.019 106.633 36.4639C107.083 36.7935 107.463 37.1442 107.753 37.5752C108.045 38.01 108.232 38.5028 108.33 39.0947C108.522 40.2481 108.386 41.8283 108.041 44.1963C107.288 49.359 106.948 52.1787 107.06 53.7676C107.115 54.5534 107.277 54.9425 107.472 55.1631C107.663 55.3798 107.956 55.5163 108.488 55.623C109.574 55.8405 110.814 55.4697 111.796 54.7402C112.783 54.0075 113.411 52.9887 113.411 52.0127C113.411 51.711 113.497 51.2716 113.623 50.7754C113.753 50.264 113.939 49.6443 114.167 48.96C114.623 47.59 115.251 45.9397 115.94 44.3369L116.195 43.7676C117.511 40.944 119.43 38.466 121.522 36.6992C123.739 34.8271 126.225 33.695 128.438 33.9131C128.749 33.9438 129.011 33.8839 129.277 33.6953C129.563 33.493 129.881 33.1233 130.245 32.4805C130.976 31.1893 131.798 28.9748 132.944 25.3711L133.476 23.748C133.995 22.2082 134.48 20.9152 134.947 19.8584C135.566 18.4596 136.171 17.4281 136.812 16.7891ZM187.181 29.6748C187.834 29.706 188.439 29.9421 188.88 30.4141C189.321 30.8863 189.551 31.544 189.551 32.3301C189.551 32.9215 189.68 33.3452 189.873 33.6318C190.061 33.9105 190.331 34.0939 190.69 34.1768C191.443 34.3499 192.621 34.0804 194.07 33.1309C195.64 32.1026 197.62 31.4484 199.221 31.2568C200.016 31.1617 200.766 31.1743 201.34 31.3457C201.629 31.432 201.907 31.5691 202.118 31.7842C202.34 32.0104 202.466 32.3024 202.466 32.6367C202.466 32.6788 202.485 32.7973 202.56 33.0059C202.63 33.2023 202.735 33.442 202.87 33.709C203.14 34.2428 203.516 34.8601 203.93 35.4258C204.307 35.9419 204.563 36.2553 204.805 36.4336C205.006 36.5821 205.195 36.6359 205.491 36.583C205.83 36.5224 206.299 36.3222 207.014 35.9102C207.72 35.5032 208.619 34.9186 209.81 34.1309C211.741 32.8531 213.156 32.057 214.301 31.7148C214.882 31.5411 215.412 31.4789 215.916 31.5381C216.423 31.5976 216.875 31.7769 217.304 32.0469C218.046 32.5146 218.649 33.0611 219.088 33.8135C219.524 34.5615 219.777 35.4764 219.883 36.6475C220.092 38.9672 219.733 42.43 218.919 47.9033C218.545 50.4161 218.183 52.4273 217.816 53.9482C217.455 55.4465 217.075 56.5396 216.636 57.1572C216.415 57.467 216.119 57.7435 215.725 57.8037C215.312 57.8664 214.961 57.6704 214.693 57.416C214.426 57.1619 214.179 56.7932 213.942 56.3486C213.703 55.8981 213.459 55.3399 213.209 54.6826C212.551 52.9512 212.032 49.4832 212.032 46.9424C212.032 45.7279 211.883 44.5362 211.646 43.6025C211.528 43.1353 211.391 42.7459 211.248 42.4551C211.098 42.1491 210.97 42.0146 210.904 41.9736V41.9727C210.857 41.9434 210.757 41.9109 210.554 41.9531C210.347 41.996 210.078 42.1084 209.749 42.3076C209.092 42.7054 208.288 43.3937 207.411 44.3174C205.663 46.1597 203.697 48.8593 202.116 51.7852C201.427 53.0603 200.701 54.0358 199.941 54.6602C199.174 55.2908 198.335 55.59 197.468 55.4141C196.998 55.3186 196.565 55.1577 196.212 54.8467C195.855 54.532 195.628 54.106 195.486 53.5693C195.214 52.5342 195.225 50.9287 195.375 48.4639C195.474 46.8326 195.43 45.2764 195.279 44.0869C195.204 43.4907 195.104 43.0018 194.989 42.6475C194.932 42.4702 194.875 42.339 194.824 42.25C194.769 42.1551 194.74 42.1418 194.756 42.1514C194.409 41.937 193.948 41.8702 193.346 42.0098C192.738 42.1507 192.019 42.4962 191.215 43.0566C189.609 44.1767 187.752 46.0936 185.887 48.668C183.632 51.781 181.574 54.0393 179.896 55.2686C179.064 55.8786 178.271 56.2753 177.56 56.3516C177.195 56.3906 176.839 56.3466 176.516 56.1924C176.191 56.0377 175.932 55.7877 175.734 55.4688C175.444 54.9986 175.325 54.3326 175.3 53.5977C175.274 52.846 175.343 51.9487 175.486 50.96C175.774 48.9805 176.366 46.5795 177.14 44.1357C177.914 41.6903 178.874 39.1873 179.902 37.0029C180.926 34.8277 182.034 32.9326 183.112 31.7305C184.364 30.3359 185.891 29.6133 187.181 29.6748ZM161.806 39.7559C161.592 39.6239 161.207 39.5987 160.627 39.8164C160.068 40.0265 159.433 40.4268 158.83 40.9453C158.229 41.462 157.681 42.0776 157.288 42.6992C156.889 43.3292 156.677 43.9201 156.677 44.3965C156.677 45.0008 156.423 45.7659 156.067 46.4922C155.705 47.2329 155.203 47.9993 154.645 48.6162C153.789 49.5613 153.451 50.8458 153.564 51.875C153.621 52.3878 153.786 52.8026 154.017 53.0781C154.235 53.3398 154.523 53.4912 154.899 53.4932C154.906 53.4917 154.935 53.4856 154.992 53.46C155.07 53.4247 155.174 53.3661 155.302 53.2793C155.557 53.1058 155.873 52.8445 156.229 52.5088C156.941 51.8388 157.778 50.9056 158.562 49.875C160.295 47.5987 161.505 45.2304 162.055 43.3135C162.33 42.3524 162.431 41.534 162.368 40.9111C162.313 40.366 162.142 40.0256 161.909 39.8311L161.806 39.7559ZM64.9648 43.127C64.3781 42.902 63.5266 43.0875 62.502 43.7324C61.5029 44.3613 60.4567 45.3567 59.5547 46.4971C58.6529 47.6371 57.9187 48.8939 57.5234 50.0293C57.1189 51.1917 57.1115 52.099 57.4551 52.6553C57.6972 53.0469 57.9602 53.2618 58.2354 53.3613C58.5123 53.4614 58.8681 53.4681 59.3389 53.3203C60.3068 53.0163 61.6066 52.1082 63.3086 50.4775C65.0814 48.7788 66.0737 47.0921 66.3164 45.7598C66.4364 45.1005 66.3695 44.5533 66.1553 44.1279C65.944 43.7088 65.5651 43.3574 64.9648 43.127ZM126.783 41.5791C126.709 41.5792 126.57 41.6143 126.361 41.7461C126.159 41.8739 125.928 42.0692 125.681 42.3252C125.187 42.837 124.669 43.5471 124.222 44.3105C123.774 45.0743 123.41 45.8677 123.21 46.5391C123.11 46.8751 123.056 47.1644 123.047 47.3945C123.037 47.6321 123.077 47.7562 123.109 47.8086C123.388 48.2586 123.654 48.5116 123.892 48.6328C124.11 48.7444 124.341 48.7633 124.62 48.667C124.917 48.5643 125.277 48.3267 125.698 47.9014C126.117 47.4791 126.573 46.8952 127.068 46.1396C127.948 44.7964 128.259 43.5842 128.151 42.7637C128.098 42.3621 127.949 42.0761 127.744 41.8906C127.541 41.7072 127.234 41.5791 126.783 41.5791ZM37.5264 26.6738C37.0932 26.7375 36.541 27.0814 35.5918 27.9404C34.3214 29.0904 33.3655 30.5055 32.8564 31.8213C32.3366 33.1651 32.3268 34.2798 32.7314 34.9346C32.9912 35.3551 33.2489 35.5922 33.498 35.708C33.7365 35.8185 34.0241 35.845 34.4072 35.7354C35.2207 35.5024 36.3327 34.6966 37.8828 33.1465C38.7155 32.3138 39.3351 31.6348 39.7637 31.0547C40.1946 30.4715 40.4049 30.025 40.4668 29.6572C40.5781 28.9954 40.2351 28.3677 39.0156 27.3555C38.3054 26.766 37.9035 26.6185 37.5264 26.6738Z" fill="#F9F9F9"/>
<path d="M276.885 60.9998H270.285V19.4474H276.885V60.9998Z" fill="#F9F9F9"/>
<path d="M246.045 60.9998C234.924 60.9998 228.63 54.8281 228.63 44.3789V19.4474H235.168V44.3789C235.168 51.7728 237.979 54.6448 246.045 54.6448C254.05 54.6448 256.861 51.7728 256.861 44.3789V19.4474H263.46V44.3789C263.46 54.8281 257.105 60.9998 246.045 60.9998Z" fill="#F9F9F9"/>
</svg>
